<svg width="32" height="32" viewBox="0 0 32 32" fill="none" xmlns="http://www.w3.org/2000/svg">
<path d="M4.84318 25.5455H30.751C30.8303 25.5455 30.9071 25.536 30.981 25.5212C30.9869 25.5212 30.9918 25.522 30.9976 25.522C31.5507 25.522 32 25.1444 32 24.6788V0.843334C32.0001 0.377811 31.5507 0 30.9976 0H30.7529H6.4463H4.84459C2.17659 0 0.00641644 1.82628 0.00641644 4.07036C0.00641644 4.10046 0.0134548 4.12902 0.0169327 4.15808C0.0134548 6.23105 -0.0171005 25.2791 0.0134549 27.7832C0.0115503 27.8322 0.00442893 27.88 0.00442893 27.9294C0.00442893 30.0873 2.01264 31.8538 4.53863 31.9872C4.5893 31.9938 4.63899 32 4.69157 32H30.9976C31.5506 32 31.9999 31.6224 31.9999 31.1567V27.9822C31.9999 27.5168 31.5505 27.1389 30.9976 27.1389C30.4446 27.1389 29.9952 27.5169 29.9952 27.9822V30.3134H4.84318C3.31997 30.3134 2.07656 29.2959 2.01545 28.0271C2.01694 28.0045 2.02183 27.9831 2.02133 27.96C2.02034 27.9229 2.01885 27.8653 2.01785 27.7887C2.10546 26.54 3.33736 25.5455 4.84318 25.5455ZM5.52666 4.07036C5.52666 3.60484 5.97572 3.22703 6.52903 3.22703C7.08233 3.22703 7.53139 3.60484 7.53139 4.07036V21.2007C7.53139 21.666 7.08233 22.0441 6.52903 22.0441C5.97572 22.0441 5.52666 21.666 5.52666 21.2007V4.07036Z" fill="white"/>
</svg>
