<svg id="Layer_1" data-name="Layer 1" xmlns="http://www.w3.org/2000/svg" viewBox="0 0 493.04 493.04"><defs><style>.cls-1{fill:#00b51a;}.cls-2{fill:#f9f9f9;}</style></defs><circle class="cls-1" cx="246.52" cy="246.52" r="246.52"/><path class="cls-2" d="M399.51,407.86c7.32-.09,13.13,3.07,18.19,8.15,18.66,18.73,37.48,37.3,56,56.16,3.72,3.79,5.93,3.65,9.6,0Q550.52,404.59,618,337.27c6.32-6.33,13.5-9.85,22.53-8.39a24.2,24.2,0,0,1,15,39.52,37.46,37.46,0,0,1-2.7,2.94Q574.89,449.21,497,527.09c-6.82,6.82-14.76,9.87-24.36,7.62A24.21,24.21,0,0,1,460.92,528q-39.35-39.33-78.63-78.72c-7.53-7.6-9.38-16.81-5.28-26.83C380.74,413.34,389.48,407.8,399.51,407.86Z" transform="translate(-271.48 -185.48)"/></svg>