<svg id="Layer_1" data-name="Layer 1" xmlns="http://www.w3.org/2000/svg" viewBox="0 0 1000 1000"><defs><style>.cls-1{fill:none;}.cls-2{fill:#682bd7;}</style></defs><rect class="cls-1" width="1000" height="1000"/><path class="cls-2" d="M675.71,740.09,647.6,757.45,515.11,543.16l-60.54,92.89L372.8,761.55,294,634.12,86,297.62,114,280.27a102.51,102.51,0,0,1,141.12,33.27L375.79,508.65l60.54-92.9,81.77-125.5,78.78,127.41L709,599A102.54,102.54,0,0,1,675.71,740.09Z"/><path class="cls-2" d="M712.71,441V261.39a22.92,22.92,0,0,1,34.37-19.84L902.59,331.3a22.92,22.92,0,0,1,0,39.69l-155.5,89.79A22.92,22.92,0,0,1,712.71,441Z"/></svg>