<svg width="29" height="32" viewBox="0 0 29 32" fill="none" xmlns="http://www.w3.org/2000/svg">
<path d="M28.5714 31C28.5714 31.5523 28.1237 32 27.5714 32H18.4603C17.9081 32 17.4603 31.5523 17.4603 31V21.6316C17.4603 21.0793 17.0126 20.6316 16.4603 20.6316H12.1111C11.5588 20.6316 11.1111 21.0793 11.1111 21.6316V31C11.1111 31.5523 10.6634 32 10.1111 32H1C0.447715 32 0 31.5523 0 31V8.94406C0 8.5891 0.188173 8.26073 0.494433 8.08127L13.7819 0.295236C14.0932 0.112825 14.4786 0.112251 14.7904 0.293734L28.0744 8.02467C28.3821 8.20375 28.5714 8.53293 28.5714 8.88896V31Z" fill="white"/>
</svg>
