<svg width="34" height="37" viewBox="0 0 34 37" fill="none" xmlns="http://www.w3.org/2000/svg">
<g clip-path="url(#clip0_2012_192)">
<path d="M15.0869 9.11671C14.7548 8.78798 14.4205 8.46157 14.0913 8.12936C11.8981 5.9139 9.70682 3.69554 7.51745 1.47429C7.35607 1.31463 7.23646 1.11696 7.16935 0.899012C7.07774 0.562757 7.26839 0.238656 7.57012 0.0847082C7.87184 -0.0692399 8.21651 -0.0165738 8.48904 0.254282C9.02664 0.78847 9.55567 1.33076 10.0887 1.86958C12.3284 4.13366 14.5684 6.39774 16.8085 8.66181C16.8658 8.71969 16.9328 8.77757 17.0267 8.86264C17.5236 8.35392 18.0086 7.85272 18.4986 7.35789C20.8185 5.01085 23.1392 2.66498 25.4606 0.32026C25.85 -0.0738704 26.3149 -0.10628 26.6492 0.232869C26.9739 0.562179 26.9355 1.03965 26.5467 1.43436L26.5261 1.45461C24.1123 3.89618 21.6974 6.33735 19.2813 8.77814C19.1616 8.88733 19.0363 8.98992 18.9057 9.08546L18.9572 9.18964H19.2492C22.1497 9.18964 25.0507 9.18501 27.9517 9.18964C31.4064 9.19774 34.0206 11.8473 34.0206 15.3348C34.0206 20.5247 34.0206 25.7142 34.0206 30.9033C34.0206 33.9637 31.9595 36.4338 28.9743 36.9379C28.6159 36.9939 28.2536 37.0198 27.8911 37.0155C20.6206 37.0201 13.3495 37.0201 6.07752 37.0155C3.19024 37.0155 0.794186 35.1229 0.163254 32.3357C0.0608424 31.8752 0.00919025 31.4047 0.00924193 30.9328C-0.00106367 25.724 -0.00297247 20.5152 0.00351625 15.3065C0.00351625 11.8559 2.62171 9.19832 6.03859 9.18848C8.92989 9.1798 11.8212 9.18848 14.7119 9.18848H15.0514L15.0869 9.11671ZM17.0101 10.7528C13.3458 10.7528 9.68162 10.7528 6.01741 10.7528C3.49368 10.7575 1.55165 12.7206 1.54764 15.2671C1.54306 20.4851 1.54306 25.703 1.54764 30.9206C1.54764 33.459 3.46448 35.4436 5.9739 35.4494C13.3306 35.4652 20.6869 35.4665 28.0428 35.4534C28.8718 35.4534 29.6533 35.2456 30.3529 34.7925C31.727 33.9047 32.461 32.6308 32.4656 30.9802C32.4799 25.7917 32.4713 20.6026 32.4713 15.4118C32.4713 12.6755 30.5654 10.75 27.8578 10.75L17.0101 10.7528Z" fill="white"/>
<path d="M23.9691 20.6859V22.3125H24.3244C25.5066 22.3125 26.6883 22.3125 27.8722 22.3125C28.2659 22.3125 28.5428 22.5219 28.6487 22.873C28.7425 23.1824 28.639 23.5486 28.3597 23.7117C28.1869 23.8087 27.9932 23.8613 27.7955 23.865C26.6322 23.8789 25.4694 23.8719 24.305 23.8719H23.9719V25.4967H24.2918C25.4837 25.4967 26.6751 25.4927 27.867 25.4967C28.4696 25.5008 28.8472 26.0578 28.6109 26.5888C28.4673 26.9139 28.2001 27.0562 27.8544 27.0562C26.319 27.0562 24.7841 27.0562 23.2498 27.0562C22.7171 27.0562 22.4121 26.7513 22.4041 26.2146C22.3961 25.6269 22.4041 25.0392 22.4041 24.4515C22.4041 22.9962 22.4041 21.541 22.4041 20.0861C22.4041 19.4001 22.6793 19.1224 23.358 19.1218C24.8457 19.1218 26.3335 19.1218 27.8213 19.1218C28.14 19.1218 28.4049 19.2161 28.572 19.5036C28.8902 20.0514 28.5091 20.6784 27.8476 20.6824C26.6654 20.6894 25.4832 20.6824 24.2998 20.6824L23.9691 20.6859Z" fill="white"/>
<path d="M18.0117 24.0391C18.3442 23.1448 18.6446 22.335 18.9456 21.5246C19.1705 20.9202 19.3936 20.3151 19.6202 19.7118C19.7993 19.2352 20.2131 19.0177 20.6342 19.1658C21.0554 19.3139 21.2448 19.776 21.0634 20.2648C20.3027 22.3236 19.5409 24.3811 18.7779 26.4373C18.6234 26.8537 18.3602 27.0608 18.0089 27.0573C17.6575 27.0539 17.3937 26.8445 17.241 26.4326C16.478 24.3757 15.7151 22.3184 14.9521 20.2608C14.7169 19.6245 15.1318 19.046 15.7532 19.1345C16.1045 19.1849 16.2934 19.4209 16.4118 19.7431C16.889 21.0434 17.3699 22.3427 17.8544 23.6411C17.895 23.7481 17.9391 23.854 18.0117 24.0391Z" fill="white"/>
<path d="M6.86494 25.4984H8.90203C9.26425 25.4984 9.62646 25.4926 9.98925 25.4984C10.4676 25.5082 10.8127 25.8455 10.8081 26.281C10.8035 26.7166 10.4602 27.0561 9.98352 27.0578C8.69718 27.0625 7.41084 27.0625 6.12449 27.0578C5.64783 27.0578 5.32339 26.7449 5.32339 26.2637C5.31652 24.1447 5.31652 22.0259 5.32339 19.9073C5.32091 19.8031 5.33951 19.6996 5.37805 19.603C5.4166 19.5064 5.47427 19.4188 5.54752 19.3456C5.62078 19.2723 5.70807 19.215 5.80405 19.1771C5.90002 19.1392 6.00264 19.1216 6.10561 19.1252C6.53363 19.131 6.86036 19.4677 6.86265 19.935C6.86952 21.2157 6.86265 22.4969 6.86265 23.7781L6.86494 25.4984Z" fill="white"/>
<path d="M12.068 23.069C12.068 22.0278 12.0646 20.9866 12.068 19.9454C12.068 19.4572 12.393 19.1252 12.8428 19.127C13.2926 19.1287 13.6056 19.4671 13.609 19.9593C13.6136 20.7981 13.609 21.6368 13.609 22.4755C13.609 23.7197 13.6124 24.9628 13.609 26.207C13.6061 26.8774 12.9881 27.2696 12.4491 26.9485C12.167 26.7802 12.0634 26.517 12.0646 26.1931C12.0709 25.1513 12.068 24.1102 12.068 23.069Z" fill="white"/>
</g>
<defs>
<clipPath id="clip0_2012_192">
<rect width="34" height="37" fill="white"/>
</clipPath>
</defs>
</svg>
