<svg width="32" height="35" viewBox="0 0 32 35" fill="none" xmlns="http://www.w3.org/2000/svg">
<path fill-rule="evenodd" clip-rule="evenodd" d="M29.9518 4.31249L1.57977 14.6447L0 10.3156L28.3721 0L29.9518 4.31249ZM32 34.0565H1.62688V14.8748H32V34.0565ZM28.2113 4.33743V0.654079L26.2075 1.37745V5.07466L28.2113 4.33743ZM24.2203 5.8008V2.10359L22.2082 2.81864V6.54634L24.2203 5.8008ZM20.0908 7.22536V3.56695L18.0786 4.29032V7.96536L20.0908 7.22536ZM31.4374 18.935L30.1736 15.4596H28.0312L29.295 18.935H31.4374ZM27.0611 18.935L25.7973 15.4596H23.6466L24.9188 18.935H27.0611ZM16.0693 8.78296V5.07743L14.0599 5.8008V9.49801L16.0693 8.78296ZM22.8401 18.935L21.5763 15.4596H19.4339L20.6977 18.935H22.8401ZM11.9397 10.1992V6.52416L9.90542 7.24753V10.9447L11.9397 10.1992ZM18.4639 18.935L17.2001 15.4596H15.0521L16.316 18.935H18.4639ZM7.98753 11.718V8.0097L5.96155 8.75801V12.4331L7.98753 11.718ZM14.1514 18.935L12.8876 15.4596H10.7452L12.009 18.935H14.1514ZM3.83579 13.1342V9.45921L1.82366 10.1743V13.8798L3.83579 13.1342ZM9.8001 18.935L8.51412 15.4596H6.38836L7.63 18.935H9.8001ZM5.53196 18.935L4.24597 15.4596H2.10359L3.3674 18.935H5.53196Z" fill="white"/>
</svg>
