<svg width="32" height="38" viewBox="0 0 32 38" fill="none" xmlns="http://www.w3.org/2000/svg">
<path fill-rule="evenodd" clip-rule="evenodd" d="M26.9839 24.0214C27.825 23.8736 28.6201 23.8983 29.317 24.0614V7.63981L11.9877 12.6294V31.6981C11.9969 31.8028 12.0031 31.9105 12.0031 32.0152V32.0183C12.0031 34.5854 9.31696 37.134 6.00153 37.7096C2.68918 38.2822 0 36.6662 0 34.096C0 31.5288 2.68918 28.9802 6.00153 28.4077C7.24789 28.1922 8.40829 28.2876 9.36915 28.6262V5.15272H9.51343L31.9386 0V26.4469C31.9785 26.6408 32 26.8378 32 27.0348C32 27.0348 32 27.0348 32 27.0379C32 29.1833 29.7529 31.3134 26.987 31.7905C24.218 32.2707 21.9739 30.9194 21.9739 28.774C21.9708 26.6285 24.2149 24.4985 26.9839 24.0214Z" fill="white"/>
</svg>
