<svg id="Layer_1" data-name="Layer 1" xmlns="http://www.w3.org/2000/svg" viewBox="0 0 1000 1000"><defs><style>.cls-1{fill:#202020;}.cls-2{fill:#682bd7;}</style></defs><rect class="cls-1" width="1000" height="1000"/><path class="cls-2" d="M323.16,505.78V476.07c.23-.35.6-.68.65-1.05,1-6.48,1.65-13,2.84-19.44a154.05,154.05,0,0,1,19.05-49.92,167.87,167.87,0,0,1,35.59-42.75c10-8.59,20.6-16.35,32.4-22.06A253,253,0,0,1,446,328.14,128.29,128.29,0,0,1,484,322c4.39,0,8.8-.24,13.17.05,7.47.49,14.94,1.12,22.37,2,16.49,2,32,7.47,46.83,14.62A162.14,162.14,0,0,1,603,363.06a173.81,173.81,0,0,1,24.85,26.74,166.2,166.2,0,0,1,22.26,40.45c5.13,13.41,8.83,27.25,10.06,41.56.87,10,.79,20.16.73,30.24,0,4.67-1,9.33-1.55,14.24L654.42,514c-6.31-3-12.39-6.68-19-8.74-12.75-4-25.71-7.4-38.75-10.29a17.32,17.32,0,0,0-17.92,6.25c-3.78,4.6-4.74,10-4.79,15.55-.15,19.92-.06,39.84-.06,59.75v3.82c-20.61-1.6-36.58,5.9-46.94,23.37s-8.23,35.17,3.06,52.59c-9.27,1.26-17.72,3.21-26.21,3.38a273.68,273.68,0,0,1-37.34-1.41,142.91,142.91,0,0,1-41.73-11.92c-22.92-10.29-43.09-24.41-59.67-43.57a171.34,171.34,0,0,1-26.83-41.3A160.72,160.72,0,0,1,324.52,514C324.19,511.21,323.62,508.5,323.16,505.78ZM492,419.42c-38.63.06-68,30.86-69.31,66-1.63,42.39,31.78,72.4,68.29,72.66,39.65.3,69.11-30.38,70.36-66.82A69.31,69.31,0,0,0,492,419.42ZM446.16,416l-34.53-61.27c-27.86,13.88-46.46,36-59.78,64L418.1,446.8C423.6,433.25,433.69,423.86,446.16,416Z"/><path class="cls-2" d="M676.84,562.43c-1.25,3.66-2,7.65-3.87,10.93-4.09,7-8.69,13.68-13.33,20.33a64.06,64.06,0,0,1-6.63,7.37,19.41,19.41,0,0,1-2.88,2.05l-1.22-.52c.75-3.15,1.52-6.3,2.24-9.46,1.71-7.51,3.33-14.92,1.07-22.75A26,26,0,0,0,640,554.8a45.75,45.75,0,0,0-21.22-6.21c-3.27-.2-6.53-.61-10.3-1v4.15c0,17.38.07,34.76,0,52.14,0,8.59-.16,17.2-.72,25.76-1.17,17.74-10.31,30.08-27,35.92a40.58,40.58,0,0,1-53.55-38.5A38.67,38.67,0,0,1,536.9,601a40.14,40.14,0,0,1,40.65-13c1,.22,1.91.51,3.27.87v-4.49c0-22.79-.07-45.58.09-68.37a21.16,21.16,0,0,1,2-9.09c2.51-5,7.43-6.61,13.85-5.26,12.88,2.72,25.77,5.42,38,10.3,12,4.79,23.61,10.37,32.76,20,4.53,4.8,7,10.56,9.24,16.58Z"/><path class="cls-2" d="M615.52,606.74V554.3c6.28,1.62,12.32,2.89,18.16,4.8,2.69.87,5.08,2.85,7.4,4.61,1.93,1.45,2.21,3.31.92,5.65-5.66,10.32-11.82,20.29-19.58,29.2C620.21,601.1,618.08,603.7,615.52,606.74Z"/><path class="cls-2" d="M492.69,471.93c8.25-.6,13.88,5.72,13.85,13.37,0,8.53-5.38,14.06-14,14.13-8,.06-13.89-5.91-13.81-14.14C478.81,478.36,483.87,471.46,492.69,471.93Z"/></svg>