<svg width="26" height="39" viewBox="0 0 26 39" fill="none" xmlns="http://www.w3.org/2000/svg">
<path d="M18.9705 6.60768V16.5918C18.9705 25.1577 7.01933 25.1577 7.01933 16.5918V6.60768C7.01933 -2.20256 18.9705 -2.20256 18.9705 6.60768ZM14.4789 30.7192V37.499C14.4613 37.8813 14.2972 38.2422 14.0208 38.5065C13.7445 38.7708 13.377 38.9183 12.9949 38.9183C12.6128 38.9183 12.2453 38.7708 11.969 38.5065C11.6926 38.2422 11.5285 37.8813 11.5109 37.499V30.7034C10.1455 30.5451 8.81418 30.1691 7.56731 29.5898C6.17412 28.9407 4.90489 28.0528 3.81694 26.9661L3.8011 26.9375C2.60044 25.7345 1.64507 24.3089 0.988318 22.7402C0.334016 21.1637 -0.00188012 19.4729 4.39721e-05 17.7656C-0.0022271 17.4705 0.0835218 17.1815 0.246301 16.9356C0.40908 16.6896 0.641475 16.498 0.913703 16.3852C1.18593 16.2723 1.48559 16.2435 1.77428 16.3024C2.06297 16.3612 2.32754 16.5051 2.53408 16.7155L2.56576 16.7472C2.82452 17.0229 2.96841 17.3872 2.96803 17.7656C2.96611 19.0788 3.22451 20.3793 3.72825 21.5917C4.75723 24.0622 6.71875 26.0257 9.18593 27.0549C10.397 27.5596 11.6958 27.8194 13.0076 27.8194C14.3193 27.8194 15.6181 27.5596 16.8292 27.0549C18.0481 26.5456 19.1555 25.8019 20.0886 24.8658L20.114 24.8436C21.0364 23.9127 21.77 22.8117 22.2742 21.6013C22.7749 20.385 23.029 19.0812 23.0218 17.7656C23.0394 17.3833 23.2035 17.0225 23.4798 16.7582C23.7562 16.4939 24.1236 16.3464 24.5058 16.3464C24.8879 16.3464 25.2553 16.4939 25.5317 16.7582C25.8081 17.0225 25.9721 17.3833 25.9898 17.7656C25.9911 19.4698 25.6552 21.1573 25.0015 22.7307C24.3433 24.3137 23.3824 25.7525 22.1729 26.9661L22.1444 26.9915C21.0639 28.0667 19.8044 28.945 18.4225 29.5866C17.1743 30.1655 15.842 30.5414 14.4757 30.7002L14.4789 30.7192Z" fill="white"/>
</svg>
