<?xml version="1.0" standalone="no"?>
<!DOCTYPE svg PUBLIC "-//W3C//DTD SVG 20010904//EN"
 "http://www.w3.org/TR/2001/REC-SVG-20010904/DTD/svg10.dtd">
<svg version="1.0" xmlns="http://www.w3.org/2000/svg"
 width="360.000000pt" height="360.000000pt" viewBox="0 0 360.000000 360.000000"
 preserveAspectRatio="xMidYMid meet">
<metadata>
Created by potrace 1.14, written by Peter Selinger 2001-2017
</metadata>
<g transform="translate(0.000000,360.000000) scale(0.100000,-0.100000)"
fill="#000000" stroke="none">
<path d="M260 2168 c-64 -21 -154 -82 -190 -130 -72 -95 -92 -266 -47 -390 38
-104 118 -186 217 -220 57 -20 84 -23 230 -23 212 0 265 14 350 95 36 34 71
80 92 120 32 63 33 69 33 180 0 118 -1 122 -54 215 -28 50 -79 93 -149 128
l-67 32 -190 2 c-118 1 -203 -3 -225 -9z m382 -178 c21 -6 55 -29 77 -51 31
-32 41 -52 49 -96 19 -111 -21 -198 -113 -246 -50 -25 -229 -36 -310 -18 -146
33 -217 179 -150 311 27 52 75 95 115 103 50 9 296 7 332 -3z"/>
<path d="M1160 2157 c-24 -12 -52 -26 -61 -31 -32 -18 -69 -109 -69 -170 0
-96 62 -191 139 -211 14 -4 133 -10 263 -14 221 -6 238 -7 253 -26 38 -50 20
-110 -36 -126 -13 -4 -156 -7 -316 -8 l-293 -1 0 -85 0 -85 313 0 c297 1 315
2 374 23 82 30 128 83 137 161 16 123 -19 203 -107 252 l-52 29 -230 3 c-153
2 -234 7 -243 15 -37 30 -29 100 11 111 12 3 151 6 310 6 l287 0 0 90 0 90
-317 0 c-309 0 -319 -1 -363 -23z"/>
<path d="M1990 2161 c-11 -22 -13 -80 -4 -106 10 -25 60 -46 91 -39 63 16 95
102 53 144 -28 28 -125 29 -140 1z"/>
<path d="M2620 1935 c0 -135 -2 -245 -5 -245 -2 0 -57 52 -122 116 -65 64
-153 150 -195 192 -43 42 -79 74 -81 71 -3 -2 -12 -18 -21 -36 -33 -66 -120
-104 -181 -79 l-35 15 0 -285 0 -284 85 0 85 0 2 245 3 246 235 -231 c291
-285 276 -273 320 -266 71 11 70 5 70 417 l0 369 -80 0 -80 0 0 -245z"/>
<path d="M2860 2090 l0 -90 140 0 140 0 0 -300 0 -300 90 0 90 0 0 300 0 300
135 0 135 0 0 90 0 90 -365 0 -365 0 0 -90z"/>
</g>
</svg>
