<?xml version="1.0" standalone="no"?>
<!DOCTYPE svg PUBLIC "-//W3C//DTD SVG 20010904//EN"
 "http://www.w3.org/TR/2001/REC-SVG-20010904/DTD/svg10.dtd">
<svg version="1.0" xmlns="http://www.w3.org/2000/svg"
 width="4167.000000pt" height="4167.000000pt" viewBox="0 0 4167.000000 4167.000000"
 preserveAspectRatio="xMidYMid meet">
<metadata>
Created by potrace 1.14, written by Peter Selinger 2001-2017
</metadata>
<g transform="translate(0.000000,4167.000000) scale(0.100000,-0.100000)"
fill="#000000" stroke="none">
<path d="M9517 37964 c-1 -1 -47 -4 -102 -8 -189 -12 -438 -48 -532 -77 -17
-6 -42 -12 -55 -14 -13 -3 -54 -14 -93 -25 -38 -11 -77 -22 -85 -24 -9 -2 -54
-19 -100 -37 -47 -18 -87 -34 -90 -34 -36 -9 -217 -98 -330 -163 -315 -180
-628 -463 -863 -781 -66 -88 -187 -274 -186 -285 0 -5 -3 -12 -8 -15 -15 -10
-132 -230 -183 -346 -45 -100 -98 -235 -93 -235 3 0 1 -6 -4 -12 -6 -7 -16
-31 -22 -53 -7 -22 -15 -47 -18 -55 -3 -8 -7 -19 -9 -25 -25 -87 -67 -234 -69
-245 -2 -8 -10 -44 -18 -80 -8 -36 -18 -81 -21 -100 -3 -19 -8 -46 -11 -60 -2
-14 -7 -36 -10 -50 -7 -36 -13 -77 -20 -140 -3 -30 -8 -66 -10 -80 -6 -35 -14
-144 -21 -275 -4 -60 -7 -2377 -8 -5148 l-1 -5038 83 -57 c45 -31 120 -84 166
-117 46 -33 92 -66 103 -73 120 -84 493 -347 510 -360 13 -9 52 -37 88 -62 36
-25 127 -89 203 -142 188 -133 197 -139 246 -175 l44 -32 54 28 c29 15 116 61
193 101 77 40 187 97 245 128 58 30 152 79 210 110 58 30 137 71 175 92 65 35
126 66 437 229 65 33 155 81 200 105 46 24 142 74 213 111 129 67 231 121 407
214 51 26 147 77 213 111 185 97 333 174 415 217 41 22 131 69 200 105 69 36
217 114 330 173 113 59 257 134 320 168 115 60 221 115 380 199 47 25 153 80
235 123 83 43 173 90 200 105 28 15 122 65 210 110 88 45 196 102 240 125 111
59 244 128 420 220 83 43 168 88 190 100 22 13 105 56 185 98 80 41 186 96
235 122 96 50 248 130 435 228 63 33 147 76 185 97 39 20 122 64 185 98 63 33
158 82 210 110 52 27 158 82 235 122 77 40 176 92 220 115 91 48 234 123 410
215 66 34 167 87 225 118 104 54 183 96 395 207 61 32 146 77 190 100 44 23
148 77 230 120 83 43 182 95 220 115 39 21 124 66 190 100 66 34 161 84 210
110 50 26 149 78 220 115 72 37 166 87 210 110 44 23 134 70 200 105 66 34
161 84 210 110 50 26 140 73 200 105 61 32 151 79 200 105 84 44 145 76 443
231 64 34 149 78 187 99 39 20 129 68 200 105 72 37 177 93 235 123 58 30 150
78 205 107 130 68 361 189 630 330 72 37 162 84 200 105 39 20 129 68 200 105
212 110 503 263 620 325 39 20 133 70 210 110 77 40 172 89 210 110 39 21 125
66 192 101 94 49 120 66 110 75 -6 6 -136 94 -287 196 -151 102 -401 269 -555
373 -154 103 -341 229 -415 278 -74 49 -154 103 -177 118 -23 16 -44 29 -48
29 -4 0 -30 16 -59 35 -29 19 -56 35 -60 35 -4 0 -19 9 -34 19 -15 10 -121 75
-237 143 -565 335 -818 486 -906 539 -53 33 -101 59 -107 59 -7 0 -12 4 -12 8
0 4 -19 18 -42 30 -24 13 -68 37 -98 56 -146 87 -506 302 -690 411 -113 67
-324 193 -470 280 -146 87 -321 191 -390 232 -69 41 -132 78 -140 83 -74 45
-160 96 -185 110 -16 9 -100 59 -185 110 -85 51 -168 100 -185 110 -16 10
-160 95 -320 190 -159 95 -359 214 -443 264 -84 50 -169 101 -190 113 -20 13
-51 30 -69 39 -18 9 -37 22 -44 30 -6 8 -17 14 -23 14 -6 0 -34 15 -61 33 -28
17 -84 52 -125 76 -104 61 -732 434 -915 544 -82 49 -163 98 -180 107 -16 10
-149 88 -295 175 -420 250 -530 315 -612 364 -43 25 -179 107 -303 181 -125
74 -246 146 -270 160 -24 14 -115 68 -202 120 -87 52 -259 154 -383 227 -124
74 -232 138 -240 143 -8 5 -31 19 -50 30 -19 11 -50 29 -68 40 -37 22 -296
177 -482 287 -69 41 -132 78 -140 83 -56 35 -113 58 -283 115 -159 53 -405
127 -467 140 -8 2 -62 15 -120 28 -139 34 -284 64 -340 71 -25 3 -56 8 -70 11
-14 3 -45 8 -70 11 -25 3 -53 8 -62 9 -9 2 -48 7 -85 10 -37 4 -79 8 -93 11
-58 9 -514 25 -523 18z"/>
<path d="M26591 27743 c-5 -21 -24 -92 -41 -158 -18 -66 -34 -127 -35 -135 -2
-8 -4 -15 -5 -15 -1 0 -3 -7 -5 -15 -8 -40 -85 -336 -165 -635 -26 -98 -113
-427 -148 -565 -17 -63 -56 -212 -87 -330 -31 -118 -59 -224 -61 -235 -2 -11
-15 -60 -29 -110 -45 -166 -174 -654 -190 -724 -2 -9 -12 -43 -21 -76 -9 -33
-18 -67 -20 -75 -1 -8 -19 -73 -38 -145 -19 -71 -49 -184 -66 -250 -28 -104
-37 -140 -55 -215 -2 -8 -27 -100 -55 -205 -28 -104 -53 -197 -54 -205 -5 -17
-100 -383 -152 -580 -20 -74 -37 -142 -39 -150 -2 -8 -27 -100 -54 -205 -28
-104 -74 -278 -101 -385 -28 -107 -81 -305 -116 -440 -36 -135 -67 -253 -69
-263 -2 -10 -7 -27 -10 -37 -3 -10 -8 -27 -10 -37 -9 -45 -84 -321 -94 -345
-6 -16 -8 -28 -6 -28 2 0 0 -11 -5 -25 -5 -14 -12 -36 -14 -48 -2 -12 -20 -85
-41 -162 -20 -77 -50 -192 -67 -255 -16 -63 -32 -122 -33 -130 -2 -8 -14 -51
-26 -95 -22 -81 -43 -164 -139 -530 -29 -110 -65 -247 -80 -305 -16 -58 -78
-296 -140 -530 -61 -234 -123 -468 -137 -520 -21 -81 -127 -485 -138 -530 -3
-8 -14 -51 -26 -95 -11 -44 -23 -87 -25 -95 -4 -19 -12 -47 -64 -245 -23 -88
-44 -167 -46 -175 -2 -8 -15 -58 -29 -110 -14 -52 -27 -104 -30 -115 -2 -11
-18 -72 -35 -135 -17 -63 -49 -185 -72 -270 -22 -85 -56 -213 -75 -285 -19
-71 -45 -170 -58 -220 -27 -107 -61 -234 -161 -615 -74 -280 -86 -325 -159
-605 -20 -77 -49 -188 -65 -246 -16 -58 -31 -117 -34 -130 -3 -13 -26 -103
-52 -199 -25 -96 -48 -182 -49 -190 -2 -8 -24 -91 -49 -183 -25 -93 -48 -178
-50 -190 -5 -21 -55 -213 -112 -427 -14 -52 -27 -102 -29 -110 -2 -8 -18 -67
-35 -130 -17 -63 -33 -122 -35 -130 -2 -8 -15 -60 -29 -115 -14 -55 -24 -101
-22 -102 2 -2 485 -142 581 -168 28 -7 95 -27 150 -43 55 -16 109 -32 120 -35
11 -3 124 -35 250 -72 127 -37 253 -73 280 -80 28 -7 106 -30 175 -50 69 -20
142 -41 164 -46 40 -10 32 -14 206 84 19 11 60 33 90 50 85 45 340 186 390
215 25 14 64 36 88 49 47 25 77 41 287 158 77 43 163 90 190 105 28 15 84 46
125 69 41 23 87 47 103 54 15 6 27 15 27 19 0 4 4 8 9 8 5 0 60 29 122 63 63
35 146 81 184 102 39 21 156 85 260 143 105 58 210 116 235 130 25 13 74 40
110 60 36 19 79 43 95 52 17 10 53 30 80 45 28 15 91 50 140 78 50 27 113 62
140 77 122 67 166 91 250 137 88 49 122 68 255 141 36 19 81 44 100 55 142 80
304 167 311 167 5 0 9 4 9 9 0 5 9 12 20 16 11 3 88 44 171 91 83 46 153 84
155 84 2 0 29 15 61 34 32 18 78 44 103 58 25 14 117 64 205 113 88 48 176 97
195 109 19 11 37 21 40 21 3 0 46 23 95 51 50 28 115 65 145 81 30 17 93 51
139 77 46 25 86 46 88 46 3 0 17 8 31 18 15 11 68 41 117 67 50 27 104 57 120
67 17 10 37 21 45 25 8 4 71 38 140 76 69 38 150 83 180 99 30 17 78 43 105
58 28 15 82 44 120 65 39 21 75 41 80 45 6 4 41 24 78 44 37 20 82 45 100 55
28 16 342 189 497 274 88 48 137 75 275 152 72 40 156 86 188 104 126 69 175
96 247 136 41 23 111 61 155 85 44 24 94 51 110 61 17 10 55 31 85 47 417 224
660 371 870 526 685 509 1235 1202 1551 1956 22 52 46 109 54 125 36 82 158
462 181 565 2 11 6 28 8 38 23 94 27 115 57 282 28 156 27 152 35 228 3 37 8
75 10 85 25 134 24 1018 -1 1207 -19 141 -28 196 -50 289 -64 267 -160 500
-301 731 -36 58 -70 114 -77 125 -6 11 -14 22 -17 25 -3 3 -32 41 -65 85 -131
176 -404 425 -620 567 -57 37 -523 305 -695 400 -23 13 -49 28 -58 33 -10 6
-65 37 -122 69 -58 33 -126 72 -153 88 -26 15 -50 28 -53 28 -3 0 -18 8 -32
18 -15 11 -52 32 -82 49 -30 16 -172 96 -315 178 -143 81 -280 159 -305 173
-25 13 -70 39 -100 57 -30 18 -145 84 -255 146 -175 98 -392 221 -520 294 -22
13 -80 46 -128 74 -49 28 -90 51 -92 51 -2 0 -36 19 -77 43 -40 24 -80 46 -88
50 -8 4 -31 17 -50 28 -28 17 -473 270 -593 338 -18 10 -117 67 -222 126 -104
59 -215 122 -245 138 -30 17 -72 41 -92 54 -21 13 -42 23 -48 23 -5 0 -10 5
-10 10 0 6 -5 10 -10 10 -6 0 -89 45 -185 100 -96 55 -179 100 -185 100 -5 0
-10 5 -10 10 0 6 -4 10 -9 10 -5 0 -114 60 -242 133 -129 73 -344 196 -479
272 -135 76 -262 148 -282 161 -21 13 -40 24 -42 24 -3 0 -55 29 -116 65 -61
36 -112 65 -114 65 -1 0 -74 41 -162 91 -165 95 -180 104 -354 201 -58 32
-112 62 -120 68 -28 18 -125 73 -180 103 -30 17 -124 70 -209 119 -84 48 -155
88 -156 88 -2 0 -38 20 -79 45 -42 25 -79 45 -81 45 -2 0 -9 -17 -14 -37z"/>
<path d="M20365 25744 c-60 -31 -249 -127 -420 -214 -170 -86 -449 -228 -620
-315 -338 -172 -750 -381 -1195 -608 -157 -79 -429 -218 -605 -307 -176 -89
-437 -222 -580 -295 -143 -73 -408 -208 -590 -300 -181 -92 -451 -229 -600
-305 -148 -76 -405 -206 -570 -290 -165 -84 -430 -219 -590 -300 -159 -81
-429 -218 -600 -305 -170 -87 -436 -222 -590 -300 -463 -236 -797 -405 -1255
-638 -603 -307 -815 -414 -1072 -545 -767 -391 -896 -457 -923 -469 -16 -8
-37 -18 -45 -23 -15 -8 -188 -96 -805 -410 -176 -89 -475 -241 -665 -338 -190
-97 -470 -239 -622 -316 -153 -78 -396 -201 -540 -275 -145 -73 -405 -205
-578 -293 -173 -88 -319 -165 -325 -170 -7 -6 -11 -1133 -12 -3336 -3 -6085
-2 -8616 2 -8677 14 -201 25 -286 62 -465 28 -138 99 -390 114 -404 5 -6 9
-16 9 -23 0 -25 73 -198 140 -333 109 -220 241 -423 403 -620 77 -93 306 -324
376 -380 24 -19 49 -40 55 -45 55 -53 372 -275 391 -275 4 0 19 -9 34 -19 32
-23 254 -137 326 -168 28 -12 75 -31 105 -43 30 -12 66 -26 80 -32 37 -15 220
-74 255 -83 38 -9 51 -12 100 -25 51 -13 288 -58 340 -64 22 -3 69 -8 105 -12
153 -19 576 -9 735 15 33 6 78 13 100 16 22 4 51 8 65 10 14 2 63 13 110 25
47 11 96 23 110 26 14 3 92 27 174 55 242 81 423 164 686 317 80 47 163 95
185 107 22 13 85 49 140 82 55 32 107 62 115 66 8 4 31 17 50 28 62 37 684
400 735 429 23 13 456 264 696 404 20 12 85 49 145 84 60 35 116 67 124 72 19
13 350 204 410 238 25 14 57 33 72 43 14 11 28 19 31 19 2 0 94 52 203 116
226 132 253 148 309 179 22 13 86 50 143 84 57 34 106 61 109 61 3 0 17 8 31
19 15 10 47 29 72 43 25 14 140 80 255 148 116 67 258 150 317 184 69 39 111
70 118 86 7 15 92 81 218 168 232 160 576 400 1002 697 157 109 314 219 350
244 64 44 204 141 310 216 30 21 84 58 120 83 36 25 68 48 72 51 6 6 33 96 44
149 3 13 34 142 70 285 35 144 66 271 68 282 6 28 192 783 216 875 10 41 21
86 24 100 3 14 32 135 66 270 34 135 63 254 66 266 2 11 27 112 55 225 28 112
52 211 54 219 2 8 20 83 40 165 44 178 40 164 48 195 4 14 36 144 71 290 136
558 226 926 233 950 3 14 7 30 8 35 2 6 10 37 18 70 9 33 18 71 20 85 3 14 23
97 46 185 22 88 45 183 51 210 7 28 13 57 15 65 15 58 57 228 61 243 2 9 6 25
8 35 2 9 9 37 16 62 7 25 14 52 15 60 2 8 25 101 50 205 26 105 48 197 50 205
2 8 8 35 15 60 7 25 13 52 15 60 2 8 12 51 24 95 11 44 22 91 25 105 10 52
102 419 110 440 3 8 7 26 10 40 2 14 23 102 46 195 23 94 43 177 45 185 2 8
10 42 18 75 9 33 18 73 21 88 3 15 12 51 20 80 8 29 17 63 20 77 3 14 10 43
15 65 18 68 62 249 66 265 5 25 94 393 102 420 3 14 7 30 9 35 1 6 16 66 33
135 17 69 33 134 35 145 2 11 9 40 16 65 7 25 13 52 15 60 2 8 12 51 24 95 11
44 22 91 25 105 3 14 19 79 36 145 17 66 32 127 34 135 1 8 6 26 9 40 8 29
127 518 132 540 2 8 37 152 79 320 211 857 248 1007 252 1027 4 22 27 115 135
548 27 111 51 211 54 224 2 12 7 31 10 41 3 10 7 27 9 37 2 10 9 38 16 63 7
25 13 52 15 60 3 13 13 54 29 120 2 8 21 83 41 165 20 83 67 276 105 430 279
1132 279 1131 287 1180 3 17 8 37 13 45 4 8 11 33 15 55 5 22 9 45 11 50 1 6
32 132 68 280 37 149 73 295 81 325 8 30 29 114 46 185 17 72 57 238 90 370
33 132 62 251 64 265 3 14 10 41 15 60 6 19 14 49 16 65 3 17 14 62 25 100 11
39 22 86 25 105 3 19 8 38 11 42 2 5 6 16 8 25 2 10 17 77 35 148 18 72 33
137 35 145 6 27 136 554 141 571 5 18 -4 29 -62 74 -21 17 -54 44 -74 61 -45
39 -744 612 -779 639 -14 11 -55 44 -91 73 -36 30 -72 59 -80 66 -24 18 -195
160 -200 166 -7 8 -67 50 -72 50 -1 0 -52 -25 -113 -56z"/>
</g>
</svg>
