<svg width="22" height="22" viewBox="0 0 22 22" fill="none" xmlns="http://www.w3.org/2000/svg">
<path d="M17.1087 15.4425L21.6798 20.0985C22.1188 20.5456 22.1046 21.2617 21.6483 21.6915C21.1992 22.1146 20.4899 22.1008 20.0578 21.6606L15.4834 16.9994C13.9285 18.1538 12.1751 18.789 10.2232 18.9051C8.91896 18.9826 7.65585 18.8078 6.43388 18.3805C5.21192 17.9531 4.1459 17.344 3.23583 16.553C2.32576 15.762 1.58124 14.7975 1.00227 13.6593C0.423293 12.5212 0.0950407 11.3129 0.0175098 10.0344C-0.0600211 8.75584 0.11992 7.51729 0.557332 6.31874C0.994744 5.12018 1.61741 4.07431 2.42533 3.18115C3.23324 2.28799 4.21802 1.55688 5.37967 0.987812C6.54131 0.418747 7.77422 0.0954339 9.0784 0.0178731C10.3826 -0.0596877 11.6457 0.115185 12.8677 0.54249C14.0898 0.969796 15.1558 1.57895 16.0658 2.36994C16.9758 3.16094 17.7203 4.12549 18.2993 5.2636C18.8784 6.40171 19.2066 7.61003 19.2841 8.88857C19.3333 9.69978 19.2779 10.4995 19.1181 11.2878C18.9583 12.076 18.7075 12.8166 18.3658 13.5094C18.0242 14.2023 17.6052 14.8467 17.1087 15.4425ZM10.0886 16.683C11.087 16.6236 12.0288 16.3751 12.914 15.9375C13.7992 15.4999 14.5506 14.9397 15.1682 14.257C15.7858 13.5743 16.2632 12.776 16.6005 11.8622C16.9378 10.9483 17.0768 10.0021 17.0175 9.02332C16.9581 8.04458 16.7059 7.12156 16.2606 6.25425C15.8153 5.38694 15.2449 4.65096 14.5493 4.04631C13.8537 3.44167 13.04 2.97459 12.1083 2.64507C11.1766 2.31556 10.2115 2.18049 9.21314 2.23986C8.21474 2.29924 7.27293 2.54771 6.38771 2.98528C5.50249 3.42285 4.75107 3.98303 4.13347 4.6658C3.51586 5.34858 3.03842 6.14686 2.70115 7.06064C2.36388 7.97442 2.22491 8.92071 2.28424 9.89951C2.34357 10.8783 2.59584 11.8013 3.04107 12.6686C3.48629 13.5358 4.05674 14.2718 4.75242 14.8765C5.44809 15.4811 6.26176 15.9482 7.1934 16.2777C8.12505 16.6072 9.09011 16.7423 10.0886 16.683Z" fill="white"/>
</svg>
