<svg width="31" height="31" viewBox="0 0 31 31" fill="none" xmlns="http://www.w3.org/2000/svg">
<path fill-rule="evenodd" clip-rule="evenodd" d="M20.3643 7.08958C19.9627 7.49121 19.9627 8.14237 20.3643 8.544L21.0945 9.27418H18.887C17.5277 9.27418 16.2347 9.90285 15.3396 10.9988L7.69453 20.3602C7.15749 21.0178 6.38165 21.395 5.56611 21.395H4.92041V23.4151H5.56611C6.92534 23.4151 8.21842 22.7864 9.11348 21.6904L16.7585 12.3291C17.2956 11.6715 18.0714 11.2943 18.887 11.2943H21.2501L20.3643 12.18C19.9627 12.5817 19.9627 13.2328 20.3643 13.6345C20.7659 14.0361 21.4171 14.0361 21.8187 13.6345L24.7579 10.6953C24.942 10.5112 24.942 10.2128 24.7579 10.0287L21.8187 7.08958C21.4171 6.68795 20.7659 6.68795 20.3643 7.08958ZM6.2108 8.33146C7.5228 8.33146 8.77094 8.9404 9.63489 10.002L11.9467 12.6912L10.5768 13.9878L8.26526 11.2906C7.74689 10.6536 6.998 10.2882 6.2108 10.2882H4.92081V8.33146H6.2108ZM15.6 19.8591C16.464 20.9207 17.7121 21.5296 19.0241 21.5296H21.3847L20.3643 22.55C19.9627 22.9517 19.9627 23.6028 20.3643 24.0045C20.7659 24.4061 21.4171 24.4061 21.8187 24.0045L24.7579 21.0653C24.942 20.8812 24.942 20.5828 24.7579 20.3987L21.8187 17.4596C21.4171 17.058 20.7659 17.058 20.3643 17.4596C19.9627 17.8612 19.9627 18.5124 20.3643 18.914L21.0232 19.5729H19.0241C18.2369 19.5729 17.488 19.2075 16.9696 18.5705L15.2904 16.3446L13.8763 17.7587L15.6 19.8591Z" fill="white"/>
</svg>
