<svg id="Layer_1" data-name="Layer 1" xmlns="http://www.w3.org/2000/svg" viewBox="0 0 335.39 335.26"><defs><style>.cls-1{fill:#672ad6;}.cls-2{fill:#fff;}</style></defs><path class="cls-1" d="M508.45,264h19.64a17.25,17.25,0,0,0,2.53.53,152.24,152.24,0,0,1,51,11.92q83.77,36.3,101.61,126c1.26,6.37,1.78,12.89,2.64,19.34v19.64a26.56,26.56,0,0,0-.57,3.14,163.25,163.25,0,0,1-19.75,67.22A167.44,167.44,0,0,1,464,590.17c-90.15-30.73-136.71-129.88-101.92-218.78,22.75-58.16,66.26-92.88,127.65-104.84C495.88,265.35,502.2,264.83,508.45,264ZM453.31,430.75h-.48v45.49c0,13,7.72,20.8,20.74,20.81q44.83,0,89.67,0c13.08,0,20.82-7.61,20.85-20.67q.09-44.85,0-89.68c0-12.89-7.8-20.51-20.66-20.52-29.79,0-59.57.15-89.35-.08-12.62-.1-21.12,8.76-20.84,20.79C453.57,401.5,453.31,416.13,453.31,430.75Z" transform="translate(-350.49 -264)"/><path class="cls-2" d="M453.31,430.75c0-14.62.26-29.25-.08-43.86-.28-12,8.22-20.89,20.84-20.79,29.78.23,59.56.06,89.35.08,12.86,0,20.63,7.63,20.66,20.52q.12,44.83,0,89.68c0,13.06-7.77,20.66-20.85,20.67q-44.84,0-89.67,0c-13,0-20.73-7.79-20.74-20.81V430.75Z" transform="translate(-350.49 -264)"/></svg>