<svg xmlns="http://www.w3.org/2000/svg" viewBox="0 0 276.06 215.66">
    <g id="Layer_2" data-name="Layer 2">
        <g id="Layer_1-2" data-name="Layer 1">
            <path d="M139.76,63.86a44,44,0,1,1-43.94,43.82A44.22,44.22,0,0,1,139.76,63.86Z" fill="#ffffff"/>
            <path d="M276.06,110a185.86,185.86,0,0,1-29.6,98.92c-4.23,6.65-11.32,8.6-17.28,4.77s-7.18-10.89-3.05-17.38c17.79-28,26.52-58.63,25.88-91.79-.58-30.2-9-58.12-24.92-83.86A20.91,20.91,0,0,1,224,10.3c0-5,4.23-8.91,9.16-10S243,1.33,246,6a185.09,185.09,0,0,1,20.15,41.58C272.77,67.18,276,87.4,276.06,110Z" fill="#ffffff"/>
            <path d="M0,107A186.42,186.42,0,0,1,29.89,6.27C33.38.83,38.82-1.2,44.34.73a11.55,11.55,0,0,1,7.8,12.93,18.06,18.06,0,0,1-2.72,6.44A161.76,161.76,0,0,0,25.05,89.65q-6,56.22,23.48,104.49c1.47,2.41,3,5,3.56,7.69a11.5,11.5,0,0,1-7.58,13.06c-5.36,2-11,.06-14.31-5a184.92,184.92,0,0,1-20-40.84A190.87,190.87,0,0,1,0,107Z" fill="#ffffff"/>
            <path d="M47.9,106.35A91.62,91.62,0,0,1,64.4,54c4.39-6.31,11.48-7.92,17.2-4s6.75,11,2.6,17.51q-25,39,.07,77.9c4.12,6.43,3,13.67-2.79,17.47s-12.76,2.11-17.2-4.22A92.36,92.36,0,0,1,47.9,106.35Z" fill="#ffffff"/>
            <path d="M230.57,107a90.29,90.29,0,0,1-16.24,51.61c-4.48,6.52-11.66,8.18-17.48,4.14-5.65-3.93-6.58-11-2.41-17.52q24.7-38.81,0-77.61c-4.17-6.53-3.23-13.59,2.44-17.52,5.88-4.06,12.94-2.44,17.45,4.13A90.9,90.9,0,0,1,230.57,107Z" fill="#ffffff"/>
        </g>
    </g>
</svg>
