<svg width="34" height="37" viewBox="0 0 34 37" fill="none" xmlns="http://www.w3.org/2000/svg">
<g clip-path="url(#clip0_2097_1134)">
<g clip-path="url(#clip1_2097_1134)">
<path d="M30.9891 14.1083C30.9891 16.9969 31.0172 19.8864 30.9836 22.775C30.9037 29.5255 26.1592 35.3449 19.6501 36.7176C11.9694 38.3418 4.05713 32.7299 3.21704 24.8556C2.87555 21.6539 3.04539 18.3935 3.02087 15.1596C2.99998 11.8165 3.01723 8.47252 3.02087 5.13218C3.02268 2.62922 4.61204 1.02699 7.09962 1.01414C7.81347 1.01047 8.52914 1.00679 9.2448 1.01506C11.5716 1.0426 13.1846 2.66778 13.1873 5.022C13.1964 10.9323 13.1873 16.8436 13.2 22.7548C13.2 24.5627 14.2681 26.03 15.8674 26.5267C16.438 26.7091 17.0432 26.7525 17.6335 26.6534C18.2239 26.5543 18.7827 26.3156 19.2644 25.9566C19.7461 25.5976 20.137 25.1286 20.4053 24.5878C20.6736 24.047 20.8116 23.4498 20.8081 22.8448C20.8326 16.9335 20.8235 11.0223 20.8135 5.11106C20.8135 4.16625 21.0379 3.32061 21.6037 2.56219C22.3003 1.63116 23.2185 1.10045 24.3655 1.03709C25.2637 0.988431 26.1665 1.00037 27.0674 1.0123C29.3879 1.05087 30.9864 2.68982 30.9927 5.04036C31.0009 8.06301 30.9927 11.0857 30.9927 14.1083H30.9891ZM5.57292 11.3244C5.57292 15.3736 5.50935 19.3318 5.58655 23.2864C5.7246 30.3766 12.5034 35.6901 19.3622 34.1558C24.6071 32.9824 28.408 28.1675 28.4624 22.5657C28.497 18.9848 28.4679 15.3983 28.4624 11.8147C28.4624 11.6623 28.4343 11.5108 28.4179 11.3455H23.3638V12.3555C23.3638 15.7785 23.3638 19.2015 23.3638 22.6244C23.3574 26.4147 20.6264 29.2473 16.9727 29.2638C13.4307 29.2794 10.6634 26.3835 10.6525 22.6345C10.6425 19.1574 10.6525 15.6811 10.6525 12.2049V11.3271L5.57292 11.3244Z" fill="white"/>
</g>
</g>
<defs>
<clipPath id="clip0_2097_1134">
<rect width="34" height="36.6024" fill="white"/>
</clipPath>
<clipPath id="clip1_2097_1134">
<rect width="28" height="36" fill="white" transform="translate(3 1)"/>
</clipPath>
</defs>
</svg>
