<svg width="34" height="37" viewBox="0 0 34 37" fill="none" xmlns="http://www.w3.org/2000/svg">
<g clip-path="url(#clip0_2012_212)">
<path d="M15.0869 9.01875C14.7548 8.69355 14.4205 8.37064 14.0913 8.04201C11.8981 5.85035 9.70682 3.65583 7.51745 1.45844C7.35607 1.3005 7.23646 1.10495 7.16935 0.889345C7.07774 0.556702 7.26839 0.236084 7.57012 0.0837901C7.87184 -0.0685038 8.21651 -0.0164036 8.48904 0.251542C9.02664 0.779991 9.55567 1.31645 10.0887 1.84948C12.3284 4.08924 14.5684 6.32899 16.8085 8.56874C16.8658 8.62599 16.9328 8.68325 17.0267 8.76741C17.5236 8.26415 18.0086 7.76834 18.4986 7.27882C20.8185 4.95701 23.1392 2.63634 25.4606 0.316811C25.85 -0.0730845 26.3149 -0.105146 26.6492 0.230359C26.9739 0.55613 26.9355 1.02847 26.5467 1.41894L26.5261 1.43898C24.1123 3.85431 21.6974 6.26925 19.2813 8.68382C19.1616 8.79183 19.0363 8.89331 18.9057 8.98783L18.9572 9.09089H19.2492C22.1497 9.09089 25.0507 9.08631 27.9517 9.09089C31.4064 9.0989 34.0206 11.72 34.0206 15.1701C34.0206 20.3042 34.0206 25.4379 34.0206 30.5712C34.0206 33.5988 31.9595 36.0423 28.9743 36.541C28.6159 36.5964 28.2536 36.622 27.8911 36.6177C20.6206 36.6223 13.3495 36.6223 6.07752 36.6177C3.19024 36.6177 0.794186 34.7455 0.163254 31.9882C0.0608424 31.5327 0.00919025 31.0673 0.00924193 30.6004C-0.00106367 25.4476 -0.00297247 20.2948 0.00351625 15.142C0.00351625 11.7286 2.62171 9.09948 6.03859 9.08974C8.92989 9.08116 11.8212 9.08974 14.7119 9.08974H15.0514L15.0869 9.01875ZM17.0101 10.6373C13.3458 10.6373 9.68162 10.6373 6.01741 10.6373C3.49368 10.6419 1.55165 12.5839 1.54764 15.1031C1.54306 20.265 1.54306 25.4268 1.54764 30.5884C1.54764 33.0995 3.46448 35.0627 5.9739 35.0685C13.3306 35.0841 20.6869 35.0854 28.0428 35.0725C28.8718 35.0725 29.6533 34.8669 30.3529 34.4186C31.727 33.5404 32.461 32.2802 32.4656 30.6474C32.4799 25.5146 32.4713 20.3813 32.4713 15.2462C32.4713 12.5393 30.5654 10.6344 27.8578 10.6344L17.0101 10.6373Z" fill="white"/>
</g>
<defs>
<clipPath id="clip0_2012_212">
<rect width="34" height="36.6024" fill="white"/>
</clipPath>
</defs>
</svg>
