<svg id="Layer_1" data-name="Layer 1" xmlns="http://www.w3.org/2000/svg" viewBox="0 0 1000 1000"><defs><style>.cls-1{fill:none;}.cls-2{fill:#fff;}.cls-3{fill:#682bd7;}</style></defs><rect class="cls-1" width="1000" height="1000"/><polygon class="cls-2" points="157.44 410.66 192.02 435.03 536.17 254.71 501.94 231.68 157.44 410.66"/><path class="cls-3" d="M157.43,410.66V171c0-16.6,4-33.11,12.53-47.35,14.46-24.15,44.88-48.35,107.57-25.4L501.94,231.68Z"/><path class="cls-2" d="M544.82,689.67,587,701.77,783.92,593.05c39.8-22,63.46-65.73,57.82-110.83-1.7-13.52-5.84-26.56-13.89-37.29"/><path class="cls-3" d="M544.82,689.67l93.66-356.31,173.14,98.31c41.06,23.31,41.11,82.45.1,105.83Z"/><polyline class="cls-2" points="491.58 380.84 524.13 407.51 426.69 804.59 370.04 844.05"/><path class="cls-3" d="M157.58,550.67l334-169.83L376.63,840.22,272.87,900.51C221.63,930.28,157.4,893.29,157.44,834Z"/></svg>