<svg id="Layer_1" data-name="Layer 1" xmlns="http://www.w3.org/2000/svg" viewBox="0 0 843.24 362.45"><defs><style>.cls-1{fill:#fff;}.cls-2{fill:#682bd7;}</style></defs><path class="cls-1" d="M463.05,627.79H428.27l32.82-71.52L402.75,435.94h36.74l39.27,86.39,36.74-86.39H550Z" transform="translate(-78.38 -318.77)"/><path class="cls-1" d="M592.07,572.53H559.82V435.94H591v17.39a38,38,0,0,1,17-15.7A52.26,52.26,0,0,1,631.34,432,49.41,49.41,0,0,1,656,438.19a38,38,0,0,1,16.26,17.95Q686.59,432,716.6,432q20.19,0,34.22,13.18t14,38.7v88.63H733.43v-83.3q0-12.62-6.59-20.33t-19.78-7.71q-12.62,0-20.47,8.69t-7.85,21.6v81h-32v-83.3q0-12.62-6.59-20.33t-19.77-7.71q-12.9,0-20.62,8.55t-7.71,21.74Z" transform="translate(-78.38 -318.77)"/><path class="cls-1" d="M850.66,431.74q30.86,0,50.91,20.47t20,51.89q0,31.41-20,52t-50.91,20.61q-30.57,0-50.62-20.61T780,504.1q0-31.41,20.06-51.89T850.66,431.74ZM823.6,535.93a37.44,37.44,0,0,0,54.13.14q11.07-11.49,11.08-32,0-20.19-11.08-31.55a37.92,37.92,0,0,0-54.13,0q-11.08,11.35-11.08,31.55T823.6,535.93Z" transform="translate(-78.38 -318.77)"/><polygon class="cls-1" points="0 141.84 15.25 152.58 166.99 73.08 151.9 62.92 0 141.84"/><path class="cls-2" d="M78.38,460.61V354.92A40.59,40.59,0,0,1,83.9,334c6.38-10.65,19.79-21.32,47.43-11.2l98.94,58.86Z" transform="translate(-78.38 -318.77)"/><path class="cls-1" d="M249.18,583.63,267.77,589,354.61,541c17.54-9.69,28-29,25.49-48.87A34.18,34.18,0,0,0,374,475.72" transform="translate(-78.38 -318.77)"/><path class="cls-2" d="M249.18,583.63l41.3-157.1,76.34,43.34a26.84,26.84,0,0,1,0,46.66Z" transform="translate(-78.38 -318.77)"/><polyline class="cls-1" points="147.33 128.69 161.68 140.45 118.72 315.52 93.74 332.92"/><path class="cls-2" d="M78.44,522.34l147.27-74.88L175,650l-45.75,26.58c-22.59,13.13-50.91-3.18-50.89-29.31Z" transform="translate(-78.38 -318.77)"/></svg>