<svg id="Layer_1" data-name="Layer 1" xmlns="http://www.w3.org/2000/svg" viewBox="0 0 685.13 822.05"><defs><style>.cls-1{fill:#fff;}.cls-2{fill:#682bd7;}</style></defs><polygon class="cls-1" points="0 321.68 34.59 346.06 378.74 165.74 344.5 142.71 0 321.68"/><path class="cls-2" d="M157.43,410.66V171c0-16.6,4-33.11,12.53-47.35,14.46-24.15,44.88-48.35,107.57-25.4L501.94,231.68Z" transform="translate(-157.43 -88.98)"/><path class="cls-1" d="M544.82,689.67,587,701.77,783.92,593.05c39.8-22,63.46-65.73,57.82-110.83-1.7-13.52-5.84-26.56-13.89-37.29" transform="translate(-157.43 -88.98)"/><path class="cls-2" d="M544.82,689.67l93.66-356.31,173.14,98.31c41.06,23.31,41.11,82.45.1,105.83Z" transform="translate(-157.43 -88.98)"/><polyline class="cls-1" points="334.14 291.86 366.69 318.54 269.26 715.61 212.6 755.08"/><path class="cls-2" d="M157.58,550.67l334-169.83L376.63,840.22,272.87,900.51C221.63,930.28,157.4,893.29,157.44,834Z" transform="translate(-157.43 -88.98)"/></svg>